# xmcd
#
# Track frame offsets:
#	150
#	17535
#	34195
#	58755
#	77305
#	93527
#	112737
#	127652
#	143857
#	164182
#	179732
#	196190
#
# Disc length: 2907 seconds
#
# Revision: 2
# Processed by: cddbd v1.5.2PL0 Copyright (c) Steve Scherf et al.
# Submitted via: EZCDAudioConverter 7.1.7.1
#
DISCID=980b590c
DTITLE=Bob Walsh
DYEAR=1996
DGENRE=Blues
TTITLE0=Cookie You
TTITLE1=Je veux jtre noir
TTITLE2=My lady's gone
TTITLE3=Jail
TTITLE4=Gasoline
TTITLE5=Snow falling grey day
TTITLE6=If you wanna love me
TTITLE7=Go tell your mother
TTITLE8=Baby blue
TTITLE9=Mon calendrier
TTITLE10=coffee pot
TTITLE11=When I sing the blues
EXTD=
EXTT0=
EXTT1=
EXTT2=
EXTT3=
EXTT4=
EXTT5=
EXTT6=
EXTT7=
EXTT8=
EXTT9=
EXTT10=
EXTT11=
PLAYORDER=
